<svg xmlns="http://www.w3.org/2000/svg" xmlns:xlink="http://www.w3.org/1999/xlink" viewBox="0 0 400 300" width="406" height="306" class="illustration"><defs><linearGradient id="linear-gradient" x1="126.76" y1="249.2" x2="186.77" y2="192.75" gradientUnits="userSpaceOnUse"><stop offset="0" stop-opacity="0"></stop><stop offset="0.99" stop-color="#552800"></stop></linearGradient><linearGradient id="linear-gradient-2" x1="82.14" y1="156.98" x2="42.99" y2="188.85" gradientUnits="userSpaceOnUse"><stop offset="0" stop-color="#d4a397"></stop><stop offset="1" stop-color="#fff"></stop></linearGradient></defs><title>PP</title><g style="isolation: isolate;"><g id="Layer_2" data-name="Layer 2"><path d="M21.33,166.12,177.55,77.21a25.05,25.05,0,0,1,25,.13l161,93.75a13.92,13.92,0,0,1-.07,24.11L213.23,281.47a33.57,33.57,0,0,1-33.46,0L21.28,190.29A13.92,13.92,0,0,1,21.33,166.12Z" fill="#e5e1e1"></path><path d="M144.53,256.7l8.35-5.65,60.5-50-14.32-6.15c-8.59,2.3-24,9-32,12.65-11.81,5.44-23.77,10.37-35.87,15.13q-10.05,4-20.13,7.88C123.1,238.14,133.9,247.3,144.53,256.7Z" opacity="0.32" fill="url(#linear-gradient)"></path><line x1="81.39" y1="115.26" x2="81.39" y2="115.12" fill="none" stroke="#61587d"></line><line x1="77.68" y1="115.26" x2="77.68" y2="115.12" fill="none" stroke="#61587d"></line><line x1="70.27" y1="115.12" x2="70.27" y2="115.26" fill="none" stroke="#61587d"></line><line x1="73.98" y1="115.26" x2="73.98" y2="115.12" fill="none" stroke="#61587d"></line><line x1="66.56" y1="115.12" x2="66.56" y2="115.26" fill="none" stroke="#61587d"></line><polyline points="205.67 207.67 193.58 202.33 193.58 110 209.46 104.33" fill="#7f1d18"></polyline><polyline points="213.24 92.33 213.24 201 205.67 207.67 205.67 103" fill="#aa3529"></polyline><path d="M141.49,114.93V74.72s-1.06-7.14,11.64-13.49,54.76-30.95,54.76-30.95,20.63-3.7,31.74,26.45a59.73,59.73,0,0,1,3.7,15.8v31.55l-61.11,33.86Z" fill="#68e1fd"></path><path d="M143.85,112V74.19s1.32-10.58,12.17-6.88,22.22,18.25,24.6,31.74v34.12l-35.45-20.63" fill="#e98669"></path><rect x="193.58" y="39.8" width="3.44" height="71.42" rx="1.72" ry="1.72" fill="#aa3529"></rect><path d="M197,39.8s23.54-2.38,25.13-2.12S197,63.35,197,63.35" fill="#aa3529"></path><path d="M143.28,115.61l-23.81,28.83s-10.85,16.67,6.88,26.19,34.39-10.32,34.39-10.32L181.11,137Z" fill="#f9b246"></path><path d="M141.2,114.93l-23.81,28.83s-10.85,16.67,6.88,26.19,34.39-10.32,34.39-10.32L179,136.36Z" fill="#ffd7cb"></path><path d="M176,86.31c-4.86-8.93-12.57-16.6-20-19.15C145.17,63.46,143.85,74,143.85,74v38C155.85,102.38,161.62,98.28,176,86.31Z" fill="#cd725f"></path><ellipse cx="219.98" cy="88.51" rx="17" ry="13.57" transform="translate(43.29 246.64) rotate(-63.74)" fill="#ffd7cb"></ellipse><path d="M225.25,79.21a5.73,5.73,0,0,1,2.22,4.88,10.46,10.46,0,0,1-1.16,5.07,6.2,6.2,0,0,1-3,3.13,1.36,1.36,0,0,1-1.82-.39,4,4,0,0,1-1.92,2,1.85,1.85,0,0,1-2.21-.42,4.51,4.51,0,0,1-1-3.13,8,8,0,0,1,.93-4.06,5.08,5.08,0,0,1,2.42-2.43,1.78,1.78,0,0,1,1.68.08l.12-.63,2-.82-.44,6.08c0,.41,0,.77,0,1.07s.15.49.43.37a3.33,3.33,0,0,0,1.42-1.79,7.26,7.26,0,0,0,.63-3.26,4.26,4.26,0,0,0-1.64-3.68,3.81,3.81,0,0,0-3.8-.16,8.46,8.46,0,0,0-4,3.79,11,11,0,0,0-1.54,5.9,5.87,5.87,0,0,0,1.67,4.36c1.07,1,2.54,1.1,4.42.32a13.29,13.29,0,0,0,4.46-3.37l.74,1.85a15.08,15.08,0,0,1-5.14,3.77c-2.46,1-4.43.9-5.92-.35s-2.27-3.16-2.33-5.73A13.88,13.88,0,0,1,214.58,84,11.73,11.73,0,0,1,220,79Q223.12,77.7,225.25,79.21ZM220.9,89.93a4.91,4.91,0,0,0,.48-2.22,1.63,1.63,0,0,0-.46-1.28.89.89,0,0,0-1-.14,2.11,2.11,0,0,0-1,1.17,4.73,4.73,0,0,0-.38,2.08,3,3,0,0,0,.35,1.48.6.6,0,0,0,.81.31,2.56,2.56,0,0,0,1.23-1.4" fill="#aa3529"></path><polygon points="267.15 141.18 240.71 127.15 347.04 102.86 267.69 144.42 267.15 141.18" fill="#68e1fd"></polygon><polygon points="267.69 144.42 273.63 165.47 347.04 102.86 267.69 144.42" fill="#5c5196"></polygon><polygon points="280.11 150.9 308.71 165.47 347.04 102.86 280.11 150.9" fill="#68e1fd"></polygon><polygon points="280.11 150.9 273.63 165.47 286.75 154.28 280.11 150.9" fill="#231069"></polygon><path d="M236.56,175.62c-27.26,6.81-60.68,2.55-76.75-23.31-12.47-20.05-7.4-47.95,10.32-63.12,2-1.68-.88-4.49-2.83-2.83-19.06,16.32-24.27,46.47-11,68,17,27.45,52.24,32.4,81.27,25.15C240.12,178.85,239.06,175,236.56,175.62Z" fill="#24116a"></path><path d="M257.32,168.27l-8.66,4c-2.33,1.08-.3,4.53,2,3.45l8.66-4C261.67,170.64,259.64,167.19,257.32,168.27Z" fill="#24116a"></path><path d="M109.75,187.8l-1-.5c-.57-.29-1.08.58-.5.86l1,.5C109.82,188.95,110.33,188.08,109.75,187.8Z" fill="#fa4e76"></path><path d="M65.75,168.76,30.5,185.88a108,108,0,0,0,16.37,9l31.47-21.71" fill="url(#linear-gradient-2)" style="mix-blend-mode: multiply;"></path><path d="M61.37,154.46S59.89,172,69.25,175.09s14-5.87,13.67-21.31" fill="#68e1fd"></path><ellipse cx="72.14" cy="154.11" rx="10.78" ry="6.23" transform="translate(-4.86 2.37) rotate(-1.82)" fill="#f2696a"></ellipse><path d="M74.46,140.18s-4.42-6-2.71-10.25c0,0,1.44-2.76,3.58-3.26,0,0,0,5.79,2.1,5s-.19-6.06-.19-6.06,2.17-3.14,4.65-3.12.17,5.41,1.87,4.48-.06-5.41,1.86-6a40.74,40.74,0,0,1,5.36-1s2,5.22.19,6-4.49,1.16-3.16,2.28,5-.33,5-.33.32,3-.88,4.29-8.62-1.28-7.25,1.23S91,134.49,91,134.49a19.87,19.87,0,0,1-5.22,5.33C82.92,141.52,74.46,140.18,74.46,140.18Z" fill="#8ccc00"></path><path d="M75.94,155.42s-3.15-2.92-2.63-5.53A4,4,0,0,1,75,147.66s.6,3.29,1.72,2.61-.76-3.42-.76-3.42.89-2,2.31-2.27.68,3.05,1.54,2.34-.61-3.06.41-3.61a23.53,23.53,0,0,1,2.93-1.16s1.69,2.75.75,3.41-2.43,1.14-1.55,1.63,2.78-.72,2.78-.72a3.87,3.87,0,0,1,0,2.53c-.54.88-5,.19-4,1.47s3.63,0,3.63,0a11.48,11.48,0,0,1-2.4,3.58C80.88,155.29,75.94,155.42,75.94,155.42Z" fill="#8ccc00"></path><path d="M64.5,149.26s-7.41.52-10.1-3.22c0,0-1.56-2.69-.83-4.77,0,0,4.87,3.14,5.34.91s-5.21-3.09-5.21-3.09-1.48-3.51-.13-5.6,4.66,2.76,4.78.83-4.6-2.85-4.07-4.8a40.74,40.74,0,0,1,2-5.08s5.48,1.12,5.19,3.08-1.44,4.41.22,3.89,2.38-4.35,2.38-4.35,2.67,1.32,3.14,3-5.72,6.58-2.86,6.77,4.23-4.64,4.23-4.64a19.87,19.87,0,0,1,1.69,7.27C70.18,142.86,64.5,149.26,64.5,149.26Z" fill="#8ccc00"></path><path d="M89.43,122.3l-2.31,2.11c.05-.84.13-1.68.23-2.52.06-.44-.63-.61-.68-.16q-.21,1.69-.3,3.38c-2,1.89-4,3.87-5.88,6a25,25,0,0,1-.26-4.28c0-.45-.69-.43-.7,0a25.76,25.76,0,0,0,.37,4.94A48.53,48.53,0,0,0,76.58,136,13.9,13.9,0,0,1,74,130.49c-.1-.44-.77-.23-.67.21a14.38,14.38,0,0,0,2.78,5.86l.07.06a27.12,27.12,0,0,0-4.91,15.13c0,.45.7.43.7,0a26.35,26.35,0,0,1,4.71-14.6,27.06,27.06,0,0,0,8.72.57c.45,0,.43-.74,0-.7a26.51,26.51,0,0,1-8.28-.5,50.89,50.89,0,0,1,4.7-5.83l.06,0c1.64.09,3.28.19,4.93.19a6,6,0,0,0,3-.45c.4-.22,0-.81-.37-.59-1.11.61-2.71.36-3.92.32-1,0-2.08-.08-3.12-.14,2.42-2.55,5-4.94,7.54-7.22C90.28,122.48,89.77,122,89.43,122.3Z" fill="#06577a"></path><path d="M68.13,136.64a.35.35,0,0,0-.68-.16,12.43,12.43,0,0,1-4.29,6.61q-1.3-3.27-2.39-6.62a21,21,0,0,0,3.93-5.94c.18-.41-.44-.75-.62-.33a20.42,20.42,0,0,1-3.57,5.49c-.81-2.56-1.54-5.14-2.17-7.76-.11-.44-.78-.23-.67.21q1.29,5.37,3.1,10.57a16.45,16.45,0,0,1-3.87-1.13c-.41-.18-.75.44-.33.62A17.21,17.21,0,0,0,61,139.48h0c.81,2.29,1.71,4.54,2.67,6.77a17,17,0,0,1-6.14-1.15c-.42-.16-.75.45-.33.62A17.9,17.9,0,0,0,64,146.94q1.82,4.16,4,8.18c.21.4.81,0,.59-.37a109.51,109.51,0,0,1-5.16-11h0A13.2,13.2,0,0,0,68.13,136.64Z" fill="#06577a"></path><path d="M81.12,145.31l-1.83,3.3a6.05,6.05,0,0,1-.64-1c-.21-.4-.8,0-.59.37a6.69,6.69,0,0,0,.85,1.25l0,0-2,3.57a1.43,1.43,0,0,1-.46-.83c-.07-.44-.77-.42-.7,0a2.21,2.21,0,0,0,.82,1.42l-2.48,4.47a.35.35,0,0,0,.62.33l3.27-5.9a5.24,5.24,0,0,0,1.7-.31c.42-.15.22-.83-.21-.67a4.67,4.67,0,0,1-1.08.24l3.31-6A.35.35,0,0,0,81.12,145.31Z" fill="#06577a"></path></g></g></svg>